<svg width="58" height="11" viewBox="0 0 58 11" fill="none" xmlns="http://www.w3.org/2000/svg">
<path d="M1.246 9.058C1.29267 9.058 1.33933 9.06733 1.386 9.086C1.442 9.10467 1.50733 9.14667 1.582 9.212C1.778 9.41733 2.01133 9.576 2.282 9.688C2.55267 9.79067 2.86067 9.842 3.206 9.842C3.66333 9.842 4.07867 9.73933 4.452 9.534C4.83467 9.32867 5.138 9.044 5.362 8.68C5.586 8.30667 5.698 7.882 5.698 7.406C5.698 6.86467 5.57667 6.43067 5.334 6.104C5.10067 5.768 4.79733 5.52067 4.424 5.362C4.06 5.194 3.68667 5.11 3.304 5.11C3.20133 5.11 3.09867 5.11933 2.996 5.138C2.90267 5.14733 2.814 5.16133 2.73 5.18C2.646 5.19867 2.58067 5.208 2.534 5.208C2.41267 5.208 2.31933 5.17067 2.254 5.096C2.18867 5.012 2.156 4.90933 2.156 4.788C2.156 4.72267 2.17 4.66667 2.198 4.62C2.226 4.564 2.26333 4.50333 2.31 4.438L5.152 1.344L5.32 1.568H1.078C0.966 1.568 0.868 1.53067 0.784 1.456C0.709333 1.372 0.672 1.274 0.672 1.162C0.672 1.05 0.709333 0.956666 0.784 0.881999C0.868 0.807333 0.966 0.769999 1.078 0.769999H5.782C5.94067 0.769999 6.05267 0.821333 6.118 0.924C6.18333 1.01733 6.216 1.11067 6.216 1.204C6.216 1.26 6.202 1.316 6.174 1.372C6.146 1.41867 6.10867 1.47 6.062 1.526L3.22 4.62L2.912 4.438C2.94 4.41 3.03333 4.382 3.192 4.354C3.36 4.31667 3.49067 4.298 3.584 4.298C4.09733 4.298 4.578 4.41933 5.026 4.662C5.48333 4.90467 5.852 5.25467 6.132 5.712C6.42133 6.16 6.566 6.71533 6.566 7.378C6.566 8.03133 6.412 8.60533 6.104 9.1C5.796 9.58533 5.38067 9.96333 4.858 10.234C4.33533 10.5047 3.75667 10.64 3.122 10.64C2.73933 10.64 2.36133 10.5747 1.988 10.444C1.61467 10.3133 1.288 10.1173 1.008 9.856C0.942667 9.8 0.896 9.744 0.868 9.688C0.84 9.632 0.826 9.576 0.826 9.52C0.826 9.408 0.863333 9.30533 0.938 9.212C1.022 9.10933 1.12467 9.058 1.246 9.058ZM8.5878 9.058C8.63446 9.058 8.68113 9.06733 8.7278 9.086C8.7838 9.10467 8.84913 9.14667 8.9238 9.212C9.1198 9.41733 9.35313 9.576 9.6238 9.688C9.89446 9.79067 10.2025 9.842 10.5478 9.842C11.0051 9.842 11.4205 9.73933 11.7938 9.534C12.1765 9.32867 12.4798 9.044 12.7038 8.68C12.9278 8.30667 13.0398 7.882 13.0398 7.406C13.0398 6.86467 12.9185 6.43067 12.6758 6.104C12.4425 5.768 12.1391 5.52067 11.7658 5.362C11.4018 5.194 11.0285 5.11 10.6458 5.11C10.5431 5.11 10.4405 5.11933 10.3378 5.138C10.2445 5.14733 10.1558 5.16133 10.0718 5.18C9.9878 5.19867 9.92246 5.208 9.8758 5.208C9.75446 5.208 9.66113 5.17067 9.5958 5.096C9.53046 5.012 9.4978 4.90933 9.4978 4.788C9.4978 4.72267 9.5118 4.66667 9.5398 4.62C9.5678 4.564 9.60513 4.50333 9.6518 4.438L12.4938 1.344L12.6618 1.568H8.4198C8.3078 1.568 8.2098 1.53067 8.1258 1.456C8.05113 1.372 8.0138 1.274 8.0138 1.162C8.0138 1.05 8.05113 0.956666 8.1258 0.881999C8.2098 0.807333 8.3078 0.769999 8.4198 0.769999H13.1238C13.2825 0.769999 13.3945 0.821333 13.4598 0.924C13.5251 1.01733 13.5578 1.11067 13.5578 1.204C13.5578 1.26 13.5438 1.316 13.5158 1.372C13.4878 1.41867 13.4505 1.47 13.4038 1.526L10.5618 4.62L10.2538 4.438C10.2818 4.41 10.3751 4.382 10.5338 4.354C10.7018 4.31667 10.8325 4.298 10.9258 4.298C11.4391 4.298 11.9198 4.41933 12.3678 4.662C12.8251 4.90467 13.1938 5.25467 13.4738 5.712C13.7631 6.16 13.9078 6.71533 13.9078 7.378C13.9078 8.03133 13.7538 8.60533 13.4458 9.1C13.1378 9.58533 12.7225 9.96333 12.1998 10.234C11.6771 10.5047 11.0985 10.64 10.4638 10.64C10.0811 10.64 9.70313 10.5747 9.3298 10.444C8.95646 10.3133 8.6298 10.1173 8.3498 9.856C8.28446 9.8 8.2378 9.744 8.2098 9.688C8.1818 9.632 8.1678 9.576 8.1678 9.52C8.1678 9.408 8.20513 9.30533 8.2798 9.212C8.3638 9.10933 8.46646 9.058 8.5878 9.058ZM16.2936 10.5C16.1723 10.5 16.0696 10.458 15.9856 10.374C15.9109 10.29 15.8736 10.192 15.8736 10.08V0.559999C15.8736 0.447999 15.9109 0.349999 15.9856 0.266C16.0696 0.182 16.1723 0.14 16.2936 0.14C16.4149 0.14 16.5129 0.182 16.5876 0.266C16.6716 0.349999 16.7136 0.447999 16.7136 0.559999V10.08C16.7136 10.192 16.6716 10.29 16.5876 10.374C16.5129 10.458 16.4149 10.5 16.2936 10.5ZM21.0536 3.318C21.1563 3.318 21.2496 3.36467 21.3336 3.458C21.4176 3.542 21.4596 3.63533 21.4596 3.738C21.4596 3.85933 21.4083 3.96667 21.3056 4.06L16.6016 8.064L16.5596 7.07L20.7596 3.458C20.8436 3.36467 20.9416 3.318 21.0536 3.318ZM21.1656 10.5C21.0443 10.5 20.9416 10.4487 20.8576 10.346L17.6656 6.958L18.2956 6.384L21.4596 9.758C21.5436 9.85133 21.5856 9.95867 21.5856 10.08C21.5856 10.2107 21.5343 10.3133 21.4316 10.388C21.3289 10.4627 21.2403 10.5 21.1656 10.5ZM32.7379 9.674C32.8499 9.674 32.9479 9.716 33.0319 9.8C33.1159 9.87467 33.1579 9.968 33.1579 10.08C33.1579 10.2013 33.1159 10.304 33.0319 10.388C32.9479 10.4627 32.8499 10.5 32.7379 10.5H27.7399C27.6186 10.5 27.5159 10.458 27.4319 10.374C27.3572 10.29 27.3199 10.192 27.3199 10.08V1.12C27.3199 1.008 27.3619 0.909999 27.4459 0.825999C27.5299 0.741999 27.6372 0.699999 27.7679 0.699999C27.8799 0.699999 27.9779 0.741999 28.0619 0.825999C28.1552 0.909999 28.2019 1.008 28.2019 1.12V9.912L27.9359 9.674H32.7379ZM35.3731 10.08C35.3731 10.192 35.3311 10.29 35.2471 10.374C35.1631 10.458 35.0651 10.5 34.9531 10.5C34.8317 10.5 34.7291 10.458 34.6451 10.374C34.5704 10.29 34.5331 10.192 34.5331 10.08V3.64C34.5331 3.528 34.5704 3.43 34.6451 3.346C34.7291 3.262 34.8317 3.22 34.9531 3.22C35.0744 3.22 35.1724 3.262 35.2471 3.346C35.3311 3.43 35.3731 3.528 35.3731 3.64V10.08ZM34.9531 2.282C34.7571 2.282 34.6077 2.24 34.5051 2.156C34.4117 2.06267 34.3651 1.932 34.3651 1.764V1.624C34.3651 1.456 34.4164 1.33 34.5191 1.246C34.6311 1.15267 34.7804 1.106 34.9671 1.106C35.1444 1.106 35.2797 1.15267 35.3731 1.246C35.4757 1.33 35.5271 1.456 35.5271 1.624V1.764C35.5271 1.932 35.4757 2.06267 35.3731 2.156C35.2797 2.24 35.1397 2.282 34.9531 2.282ZM38.0592 10.5C37.9379 10.5 37.8352 10.458 37.7512 10.374C37.6766 10.29 37.6392 10.192 37.6392 10.08V0.559999C37.6392 0.447999 37.6766 0.349999 37.7512 0.266C37.8352 0.182 37.9379 0.14 38.0592 0.14C38.1806 0.14 38.2786 0.182 38.3532 0.266C38.4372 0.349999 38.4792 0.447999 38.4792 0.559999V10.08C38.4792 10.192 38.4372 10.29 38.3532 10.374C38.2786 10.458 38.1806 10.5 38.0592 10.5ZM42.8192 3.318C42.9219 3.318 43.0152 3.36467 43.0992 3.458C43.1832 3.542 43.2252 3.63533 43.2252 3.738C43.2252 3.85933 43.1739 3.96667 43.0712 4.06L38.3672 8.064L38.3252 7.07L42.5252 3.458C42.6092 3.36467 42.7072 3.318 42.8192 3.318ZM42.9312 10.5C42.8099 10.5 42.7072 10.4487 42.6232 10.346L39.4312 6.958L40.0612 6.384L43.2252 9.758C43.3092 9.85133 43.3512 9.95867 43.3512 10.08C43.3512 10.2107 43.2999 10.3133 43.1972 10.388C43.0946 10.4627 43.0059 10.5 42.9312 10.5ZM47.967 10.64C47.2483 10.64 46.6136 10.486 46.063 10.178C45.5123 9.87 45.083 9.44067 44.775 8.89C44.467 8.33933 44.313 7.69533 44.313 6.958C44.313 6.16467 44.467 5.488 44.775 4.928C45.0923 4.368 45.4983 3.93867 45.993 3.64C46.497 3.332 47.029 3.178 47.589 3.178C47.9996 3.178 48.3963 3.25267 48.779 3.402C49.171 3.542 49.5163 3.75667 49.815 4.046C50.123 4.326 50.3656 4.67133 50.543 5.082C50.7296 5.49267 50.8323 5.96867 50.851 6.51C50.8416 6.622 50.795 6.72 50.711 6.804C50.627 6.87867 50.529 6.916 50.417 6.916H44.803L44.635 6.16H50.151L49.969 6.328V6.048C49.9316 5.60933 49.7916 5.236 49.549 4.928C49.3063 4.62 49.0123 4.38667 48.667 4.228C48.3216 4.06933 47.9623 3.99 47.589 3.99C47.309 3.99 47.0196 4.046 46.721 4.158C46.4316 4.27 46.1656 4.44733 45.923 4.69C45.6896 4.92333 45.4983 5.22667 45.349 5.6C45.1996 5.964 45.125 6.398 45.125 6.902C45.125 7.45267 45.237 7.952 45.461 8.4C45.685 8.848 46.007 9.20267 46.427 9.464C46.8563 9.72533 47.365 9.856 47.953 9.856C48.2796 9.856 48.5736 9.80933 48.835 9.716C49.0963 9.62267 49.325 9.50133 49.521 9.352C49.717 9.19333 49.8803 9.03 50.011 8.862C50.1136 8.778 50.2163 8.736 50.319 8.736C50.4123 8.736 50.4916 8.77333 50.557 8.848C50.6316 8.92267 50.669 9.00667 50.669 9.1C50.669 9.212 50.6223 9.31 50.529 9.394C50.249 9.73 49.885 10.024 49.437 10.276C48.989 10.5187 48.499 10.64 47.967 10.64ZM52.243 9.366C52.1683 9.254 52.131 9.14667 52.131 9.044C52.1403 8.932 52.201 8.84333 52.313 8.778C52.3876 8.71267 52.4716 8.68467 52.565 8.694C52.6676 8.70333 52.761 8.75 52.845 8.834C53.097 9.16067 53.4003 9.42667 53.755 9.632C54.119 9.828 54.5483 9.926 55.043 9.926C55.3043 9.926 55.561 9.884 55.813 9.8C56.0743 9.70667 56.289 9.57133 56.457 9.394C56.625 9.20733 56.709 8.974 56.709 8.694C56.709 8.40467 56.625 8.17133 56.457 7.994C56.289 7.81667 56.0696 7.67667 55.799 7.574C55.5376 7.47133 55.2576 7.38267 54.959 7.308C54.6416 7.224 54.3336 7.13067 54.035 7.028C53.7363 6.916 53.4703 6.78067 53.237 6.622C53.013 6.454 52.831 6.25333 52.691 6.02C52.551 5.78667 52.481 5.502 52.481 5.166C52.481 4.774 52.5883 4.42867 52.803 4.13C53.0176 3.83133 53.307 3.598 53.671 3.43C54.0443 3.262 54.4643 3.178 54.931 3.178C55.1643 3.178 55.4163 3.21067 55.687 3.276C55.9576 3.332 56.2236 3.43 56.485 3.57C56.7463 3.71 56.9796 3.90133 57.185 4.144C57.269 4.228 57.311 4.326 57.311 4.438C57.311 4.54067 57.2643 4.634 57.171 4.718C57.0963 4.774 57.0076 4.802 56.905 4.802C56.8116 4.802 56.7323 4.76467 56.667 4.69C56.443 4.438 56.177 4.24667 55.869 4.116C55.561 3.98533 55.2296 3.92 54.875 3.92C54.6043 3.92 54.3476 3.96667 54.105 4.06C53.8716 4.144 53.6756 4.27467 53.517 4.452C53.3583 4.62933 53.279 4.86267 53.279 5.152C53.2976 5.42267 53.391 5.642 53.559 5.81C53.7363 5.978 53.965 6.118 54.245 6.23C54.5343 6.342 54.8563 6.44467 55.211 6.538C55.5096 6.61267 55.7943 6.70133 56.065 6.804C56.345 6.90667 56.5876 7.03733 56.793 7.196C57.0076 7.34533 57.1756 7.53667 57.297 7.77C57.4276 8.00333 57.493 8.29733 57.493 8.652C57.493 9.06267 57.3763 9.41733 57.143 9.716C56.919 10.0147 56.6156 10.2433 56.233 10.402C55.8503 10.5607 55.4256 10.64 54.959 10.64C54.455 10.64 53.965 10.542 53.489 10.346C53.0223 10.15 52.607 9.82333 52.243 9.366Z" fill="white"/>
</svg>
